<svg width="64" height="64" viewBox="0 0 64 64" fill="none" xmlns="http://www.w3.org/2000/svg">
<path fill-rule="evenodd" clip-rule="evenodd" d="M14.4798 12.9467V15.1464H10.8448C8.53044 15.1464 6.6543 17.0226 6.6543 19.3368V43.7555C6.6543 46.0699 8.53044 47.946 10.8448 47.946H14.2494C14.8806 47.946 15.3923 47.4343 15.3923 46.8031C15.3923 46.172 14.8806 45.6603 14.2494 45.6603H10.8448C9.7928 45.6603 8.94001 44.8076 8.94001 43.7555V19.3368C8.94001 18.2849 9.7928 17.432 10.8448 17.432H39.5079C39.8509 17.432 40.129 17.7103 40.129 18.0533C40.129 18.6844 40.6407 19.1961 41.2719 19.1961C41.903 19.1961 42.4147 18.6844 42.4147 18.0533C42.4147 16.4478 41.1133 15.1464 39.5079 15.1464H35.1683V12.9467C35.1683 7.48996 30.7446 3.06641 25.288 3.06641H24.36C18.9033 3.06641 14.4798 7.48996 14.4798 12.9467ZM25.288 5.35212H24.36C20.1657 5.35212 16.7655 8.75233 16.7655 12.9467V15.1464H20.197V12.7009C20.197 10.1448 22.2691 8.07274 24.8251 8.07274C27.3813 8.07274 29.4534 10.1448 29.4534 12.7009V15.1464H32.8825V12.9467C32.8825 8.75233 29.4823 5.35212 25.288 5.35212ZM27.1677 12.7009V15.1464H22.4827V12.7009C22.4827 11.4072 23.5315 10.3585 24.8251 10.3585C26.1188 10.3585 27.1677 11.4072 27.1677 12.7009Z" fill="#5379FE"/>
<path fill-rule="evenodd" clip-rule="evenodd" d="M37.9205 43.4113C40.1881 43.4113 42.0264 41.573 42.0264 39.3053C42.0264 37.0375 40.1881 35.1992 37.9205 35.1992C35.6528 35.1992 33.8145 37.0375 33.8145 39.3053C33.8145 41.573 35.6528 43.4113 37.9205 43.4113ZM37.9205 41.1256C38.9258 41.1256 39.7407 40.3107 39.7407 39.3053C39.7407 38.3 38.9258 37.4849 37.9205 37.4849C36.9151 37.4849 36.1002 38.3 36.1002 39.3053C36.1002 40.3107 36.9151 41.1256 37.9205 41.1256Z" fill="#5379FE"/>
<path fill-rule="evenodd" clip-rule="evenodd" d="M37.9205 30.2568C31.6633 30.2568 26.5908 35.3294 26.5908 41.5867C26.5908 47.8439 31.6633 52.9163 37.9205 52.9163C40.2976 52.9163 42.5038 52.1843 44.3258 50.9333C45.0112 50.4627 45.6423 49.9188 46.2076 49.3127C48.0953 47.2888 49.2503 44.5727 49.2503 41.5868C49.2503 40.218 49.0076 38.9058 48.5628 37.691C48.4992 37.5176 48.4316 37.3461 48.36 37.1766C46.64 33.1102 42.6135 30.2568 37.9205 30.2568ZM46.2539 38.0664C44.8808 34.8203 41.6668 32.5429 37.9207 32.5429C32.9258 32.5429 28.8767 36.5919 28.8767 41.5868C28.8767 42.1841 28.9346 42.7682 29.0451 43.3333C29.3255 44.7665 29.9446 46.0787 30.8154 47.1829C32.4349 45.0256 35.0134 43.6296 37.9207 43.6296C40.8279 43.6296 43.4064 45.0256 45.0259 47.1827C46.24 45.6432 46.9646 43.6996 46.9646 41.5867C46.9646 40.4941 46.7708 39.4466 46.4157 38.477C46.365 38.3385 46.3111 38.2015 46.2539 38.0664ZM43.3748 48.8016C42.1878 47.0593 40.1878 45.9153 37.9207 45.9153C35.6535 45.9153 33.6535 47.0594 32.4665 48.8017C33.9828 49.9496 35.8722 50.6306 37.9205 50.6306C39.9691 50.6306 41.8585 49.9496 43.3748 48.8016Z" fill="#5379FE"/>
<path fill-rule="evenodd" clip-rule="evenodd" d="M33.2358 23.3763C33.2358 22.7451 33.7475 22.2334 34.3787 22.2334H41.9922C42.6235 22.2334 43.1351 22.7451 43.1351 23.3763V26.8714C44.0139 27.158 44.8584 27.5201 45.661 27.9497L47.9148 25.696C48.3611 25.2496 49.0847 25.2496 49.531 25.696L54.9146 31.0796C55.129 31.294 55.2494 31.5846 55.2494 31.8876C55.2494 32.1909 55.129 32.4815 54.9146 32.6959L52.4763 35.1341C52.7514 35.7208 52.9914 36.3273 53.1933 36.951H56.2016C56.8328 36.951 57.3445 37.4627 57.3445 38.0938V45.7074C57.3445 46.3385 56.8328 46.8502 56.2016 46.8502H53.1173C52.9047 47.4735 52.6542 48.0789 52.3683 48.6639L54.5816 50.8772C55.028 51.3234 55.028 52.047 54.5816 52.4934L49.198 57.877C48.7517 58.3233 48.028 58.3233 47.5817 57.877L45.4423 55.7376C44.7054 56.1171 43.9345 56.4402 43.1351 56.7009V59.7929C43.1351 60.424 42.6234 60.9357 41.9922 60.9357H34.3787C33.7475 60.9357 33.2358 60.424 33.2358 59.7929V56.6459C32.3343 56.3405 31.4696 55.9558 30.6504 55.4997L28.2731 57.877C27.8267 58.3233 27.1031 58.3233 26.6568 57.877L21.2731 52.4934C20.8268 52.047 20.8268 51.3234 21.2731 50.8772L23.9508 48.1996C23.7538 47.7603 23.5762 47.3103 23.4196 46.8507H19.6399C19.0088 46.8507 18.4971 46.339 18.4971 45.7078V38.0943C18.4971 37.7912 18.6176 37.5004 18.8319 37.286C19.0463 37.0718 19.3368 36.9514 19.6399 36.9514H23.3432C23.5441 36.3306 23.7827 35.7269 24.0561 35.1428L21.6091 32.6959C21.3947 32.4815 21.2744 32.1909 21.2744 31.8876C21.2744 31.5846 21.3947 31.294 21.6091 31.0796L26.9928 25.696C27.207 25.4817 27.4978 25.3612 27.8008 25.3612C28.1039 25.3612 28.3947 25.4817 28.6089 25.696L30.8672 27.9542C31.6218 27.5497 32.4134 27.205 33.2358 26.9266V23.3763ZM35.5215 24.5191V27.7703C35.5215 28.284 35.1788 28.7346 34.6837 28.8717C33.4697 29.2079 32.3247 29.7109 31.2747 30.3547C30.8241 30.631 30.2427 30.5624 29.8691 30.1886L27.8008 28.1203L24.0335 31.8876L26.2555 34.1098C26.612 34.4662 26.6927 35.0142 26.4544 35.4584C25.9622 36.3751 25.5739 37.3552 25.3048 38.3835C25.1732 38.8864 24.7189 39.2371 24.1992 39.2371H20.7828V44.565H24.2613C24.7741 44.565 25.2241 44.9065 25.362 45.4003C25.607 46.2768 25.9387 47.1171 26.3479 47.9114C26.5754 48.3533 26.4913 48.8914 26.1399 49.2428L23.6975 51.6853L27.4648 55.4526L29.6626 53.2548C30.0415 52.876 30.6325 52.8112 31.0845 53.0988C32.1859 53.7999 33.396 54.344 34.6836 54.7006C35.1787 54.8377 35.5215 55.2883 35.5215 55.802V58.65H40.8494V55.8468C40.8494 55.3281 41.1988 54.8743 41.7004 54.7419C42.8943 54.4265 44.0232 53.9503 45.0626 53.3376C45.5115 53.0729 46.0826 53.1454 46.4512 53.5139L48.3899 55.4526L52.1573 51.6853L50.1583 49.6863C49.7966 49.3246 49.7193 48.7666 49.9692 48.3201C50.4803 47.407 50.8873 46.4283 51.1747 45.3999C51.3126 44.9062 51.7626 44.5645 52.2754 44.5645H55.0588V39.2367H52.3372C51.8176 39.2367 51.3632 38.886 51.2317 38.3832C50.9618 37.3522 50.572 36.3695 50.0782 35.4508C49.8392 35.0064 49.9198 34.4582 50.2766 34.1014L52.4902 31.8876L48.7229 28.1203L46.6595 30.1837C46.286 30.5572 45.7051 30.6261 45.2546 30.3503C44.1627 29.6816 42.9682 29.1654 41.7004 28.8304C41.1988 28.698 40.8494 28.2442 40.8494 27.7255V24.5191H35.5215Z" fill="#5379FE"/>
</svg>
