<svg width="64" height="64" viewBox="0 0 64 64" fill="none" xmlns="http://www.w3.org/2000/svg">
<path d="M32 27C33.103 27 34 27.897 34 29H36C36 27.142 34.721 25.589 33 25.142V23H31V25.142C29.279 25.589 28 27.142 28 29C28 31.206 29.794 33 32 33C33.103 33 34 33.897 34 35C34 36.103 33.103 37 32 37C30.897 37 30 36.103 30 35H28C28 36.858 29.279 38.411 31 38.858V41H33V38.858C34.721 38.411 36 36.858 36 35C36 32.794 34.206 31 32 31C30.897 31 30 30.103 30 29C30 27.897 30.897 27 32 27Z" fill="#5379FE"/>
<path d="M58 27C57.744 27 57.498 27.038 57.252 27.076L53.671 17.356C53.752 17.285 53.843 17.228 53.92 17.151C55.869 15.201 55.869 12.029 53.92 10.08C52.976 9.136 51.721 8.616 50.385 8.616C49.049 8.616 47.794 9.136 46.85 10.08C46.772 10.158 46.717 10.249 46.646 10.33L36.925 6.749C36.962 6.502 37 6.256 37 6C37 3.243 34.757 1 32 1C29.243 1 27 3.243 27 6C27 6.256 27.038 6.502 27.076 6.748L17.355 10.33C17.283 10.248 17.228 10.158 17.151 10.08C16.207 9.136 14.952 8.616 13.616 8.616C12.28 8.616 11.025 9.136 10.081 10.08C8.132 12.03 8.132 15.202 10.081 17.151C10.158 17.228 10.249 17.285 10.33 17.356L6.749 27.076C6.502 27.038 6.256 27 6 27C3.243 27 1 29.243 1 32C1 34.757 3.243 37 6 37C6.256 37 6.502 36.962 6.748 36.924L10.329 46.644C10.248 46.715 10.157 46.772 10.08 46.849C8.131 48.799 8.131 51.971 10.08 53.92C11.024 54.864 12.279 55.384 13.615 55.384C14.951 55.384 16.206 54.864 17.15 53.92C17.228 53.842 17.283 53.751 17.354 53.67L27.075 57.252C27.038 57.498 27 57.744 27 58C27 60.757 29.243 63 32 63C34.757 63 37 60.757 37 58C37 57.744 36.962 57.498 36.924 57.252L46.645 53.67C46.717 53.752 46.772 53.843 46.849 53.92C47.793 54.864 49.048 55.384 50.384 55.384C51.72 55.384 52.975 54.864 53.919 53.92C55.868 51.97 55.868 48.798 53.919 46.849C53.842 46.772 53.751 46.715 53.67 46.644L57.251 36.924C57.498 36.962 57.744 37 58 37C60.757 37 63 34.757 63 32C63 29.243 60.757 27 58 27ZM55.374 27.764C54.226 28.478 53.38 29.632 53.101 31H44.949C44.732 28.167 43.608 25.589 41.861 23.553L47.628 17.787C48.439 18.325 49.389 18.616 50.385 18.616C50.913 18.616 51.42 18.513 51.908 18.356L55.374 27.764ZM32 43C25.935 43 21 38.065 21 32C21 25.935 25.935 21 32 21C38.065 21 43 25.935 43 32C43 38.065 38.065 43 32 43ZM48.264 11.494C48.83 10.928 49.583 10.616 50.385 10.616C51.187 10.616 51.94 10.928 52.506 11.494C53.676 12.664 53.676 14.567 52.506 15.737C51.373 16.87 49.397 16.87 48.264 15.737C47.094 14.567 47.094 12.664 48.264 11.494ZM36.236 8.626L45.647 12.093C45.194 13.514 45.369 15.093 46.215 16.372L40.448 22.138C38.412 20.391 35.833 19.267 33.001 19.05V10.898C34.367 10.62 35.521 9.774 36.236 8.626ZM32 3C33.654 3 35 4.346 35 6C35 7.654 33.654 9 32 9C30.346 9 29 7.654 29 6C29 4.346 30.346 3 32 3ZM27.764 8.626C28.478 9.774 29.632 10.62 31 10.899V19.051C28.167 19.268 25.589 20.392 23.553 22.139L17.786 16.373C18.632 15.094 18.807 13.515 18.354 12.094L27.764 8.626ZM11.494 11.494C12.06 10.928 12.813 10.616 13.615 10.616C14.417 10.616 15.17 10.928 15.736 11.494C16.906 12.664 16.906 14.567 15.736 15.737C14.603 16.87 12.627 16.87 11.494 15.737C10.324 14.567 10.324 12.664 11.494 11.494ZM12.093 18.356C12.581 18.512 13.088 18.615 13.615 18.615C14.611 18.615 15.561 18.325 16.372 17.786L22.139 23.552C20.392 25.588 19.268 28.167 19.051 30.999H10.899C10.62 29.632 9.774 28.478 8.626 27.763L12.093 18.356ZM3 32C3 30.346 4.346 29 6 29C7.654 29 9 30.346 9 32C9 33.654 7.654 35 6 35C4.346 35 3 33.654 3 32ZM8.626 36.236C9.774 35.522 10.62 34.368 10.899 33H19.051C19.268 35.833 20.392 38.411 22.139 40.447L16.372 46.213C15.561 45.675 14.611 45.384 13.615 45.384C13.088 45.384 12.58 45.487 12.092 45.643L8.626 36.236ZM15.736 52.506C14.603 53.639 12.627 53.639 11.494 52.506C10.324 51.336 10.324 49.433 11.494 48.263C12.06 47.697 12.813 47.385 13.615 47.385C14.417 47.385 15.17 47.697 15.736 48.263C16.906 49.433 16.906 51.336 15.736 52.506ZM27.764 55.374L18.353 51.907C18.806 50.486 18.631 48.907 17.785 47.628L23.552 41.862C25.588 43.609 28.167 44.733 30.999 44.95V53.102C29.633 53.38 28.479 54.226 27.764 55.374ZM32 61C30.346 61 29 59.654 29 58C29 56.346 30.346 55 32 55C33.654 55 35 56.346 35 58C35 59.654 33.654 61 32 61ZM36.236 55.374C35.522 54.226 34.368 53.38 33 53.101V44.949C35.832 44.732 38.411 43.608 40.447 41.861L46.214 47.627C45.369 48.906 45.193 50.485 45.646 51.905L36.236 55.374ZM52.506 52.506C51.373 53.639 49.397 53.639 48.264 52.506C47.094 51.336 47.094 49.433 48.264 48.263C48.83 47.697 49.583 47.385 50.385 47.385C51.187 47.385 51.94 47.697 52.506 48.263C53.676 49.433 53.676 51.336 52.506 52.506ZM51.907 45.644C51.419 45.488 50.912 45.385 50.384 45.385C49.388 45.385 48.438 45.675 47.627 46.214L41.86 40.448C43.607 38.412 44.731 35.833 44.948 33H53.1C53.379 34.367 54.225 35.521 55.373 36.236L51.907 45.644ZM58 35C56.346 35 55 33.654 55 32C55 30.346 56.346 29 58 29C59.654 29 61 30.346 61 32C61 33.654 59.654 35 58 35Z" fill="#5379FE"/>
<path d="M39 31H41V33H39V31Z" fill="#5379FE"/>
<path d="M23 31H25V33H23V31Z" fill="#5379FE"/>
</svg>
