<svg width="64" height="64" viewBox="0 0 64 64" fill="none" xmlns="http://www.w3.org/2000/svg">
<g clip-path="url(#clip0_525_281)">
<mask id="mask0_525_281" style="mask-type:luminance" maskUnits="userSpaceOnUse" x="0" y="0" width="64" height="64">
<path d="M0 0H64V64H0V0Z" fill="white"/>
</mask>
<g mask="url(#mask0_525_281)">
<path fill-rule="evenodd" clip-rule="evenodd" d="M19.3118 15.5593L19.4501 15.5736C20.0315 15.634 20.6109 15.6943 21.1872 15.6884C23.779 15.6619 26.2601 14.6342 28.1116 12.8203C28.523 12.4169 28.8902 11.9646 29.2588 11.5108L29.3462 11.4029C29.8492 10.7841 30.1644 10.3971 30.4124 10.1122C30.6225 9.87073 30.703 9.79849 30.7097 9.79244C31.4606 9.17985 32.5388 9.17985 33.2897 9.79241C33.2964 9.79833 33.3766 9.87052 33.587 10.1122C33.835 10.3971 34.1502 10.7841 34.6532 11.4029L34.7409 11.5108C35.1092 11.9646 35.4764 12.4169 35.8878 12.8203C37.7393 14.6342 40.2204 15.6619 42.8121 15.6884C43.3884 15.6943 43.9678 15.6341 44.5492 15.5736L44.6876 15.5593C45.4806 15.4773 45.9772 15.4266 46.354 15.4004C46.6734 15.3783 46.7814 15.3841 46.7905 15.3847C47.7545 15.4824 48.5169 16.2448 48.6148 17.2089C48.6153 17.2176 48.6212 17.3254 48.599 17.6453C48.5726 18.0221 48.522 18.5187 48.4401 19.3118L48.4257 19.4499C48.3654 20.0313 48.3052 20.6108 48.311 21.1872C48.3374 23.7789 49.3652 26.2601 51.179 28.1114C51.5825 28.5231 52.0348 28.8901 52.4884 29.2586L52.5964 29.3463C53.2153 29.8493 53.6022 30.1645 53.8873 30.4122C54.1278 30.6218 54.2004 30.7023 54.2068 30.7095C54.8196 31.4605 54.8196 32.5389 54.2068 33.2898C54.2004 33.297 54.1278 33.3775 53.8873 33.5871C53.6022 33.8349 53.2153 34.1501 52.5964 34.653L52.4886 34.7407C52.035 35.1093 51.5825 35.4762 51.179 35.8879C49.3652 37.7391 48.3374 40.2205 48.311 42.8122C48.3052 43.3885 48.3654 43.9679 48.4257 44.5493L48.4401 44.6877C48.522 45.4807 48.5726 45.9773 48.599 46.3541C48.6212 46.6743 48.6153 46.7821 48.6148 46.7906C48.5169 47.7546 47.7545 48.517 46.7905 48.6146C46.782 48.6151 46.6745 48.621 46.354 48.5989C45.9772 48.5727 45.4806 48.5221 44.6876 48.4402L44.5492 48.4258C43.9678 48.3653 43.3884 48.305 42.8121 48.3109C40.2204 48.3375 37.7393 49.365 35.8878 51.1791C35.4764 51.5823 35.1092 52.0346 34.7409 52.4885L34.6532 52.5965C34.1502 53.2151 33.835 53.6023 33.587 53.8871C33.3777 54.1279 33.2969 54.2005 33.2897 54.2069C32.5388 54.8194 31.4606 54.8194 30.7097 54.2069C30.7025 54.2005 30.6217 54.1279 30.4124 53.8871C30.1644 53.6023 29.8492 53.2151 29.3462 52.5965L29.2588 52.4887C28.8902 52.0349 28.5233 51.5823 28.1116 51.1791C26.2601 49.365 23.7789 48.3375 21.1872 48.3109C20.6109 48.305 20.0315 48.3653 19.4501 48.4258L19.3118 48.4402C18.5187 48.5221 18.0221 48.5727 17.6453 48.5989C17.3253 48.621 17.2175 48.6151 17.2089 48.6146C16.2448 48.517 15.4824 47.7546 15.3846 46.7903C15.3841 46.7813 15.3783 46.6733 15.4005 46.3541C15.4266 45.9773 15.4774 45.4807 15.5593 44.6877L15.5736 44.5493C15.6341 43.9679 15.6943 43.3885 15.6884 42.8122C15.6619 40.2205 14.6342 37.7391 12.8203 35.8879C12.417 35.4762 11.9647 35.1093 11.5109 34.7407L11.4029 34.653C10.7841 34.1501 10.3971 33.8349 10.1122 33.5871C9.87057 33.3767 9.79838 33.2962 9.79243 33.2895C9.17987 32.5389 9.17987 31.4605 9.79243 30.7098C9.79838 30.7031 9.87054 30.6226 10.1122 30.4122C10.3971 30.1645 10.7841 29.8493 11.4029 29.3463L11.5108 29.2586C11.9646 28.8903 12.4169 28.5231 12.8203 28.1114C14.6342 26.2601 15.6619 23.7789 15.6884 21.1872C15.6943 20.6108 15.6341 20.0315 15.5736 19.45L15.5593 19.3118C15.4774 18.5187 15.4266 18.0221 15.4005 17.6453C15.3783 17.326 15.3841 17.218 15.3846 17.2089C15.4824 16.2448 16.2448 15.4824 17.2089 15.3847C17.218 15.3841 17.326 15.3783 17.6453 15.4004C18.0221 15.4266 18.5187 15.4773 19.3118 15.5593ZM9.79243 33.2895C9.7923 33.2895 9.79249 33.2895 9.79243 33.2895V33.2895ZM17.2089 48.6146C17.2085 48.6146 17.2089 48.6146 17.2089 48.6146V48.6146ZM33.2897 54.2069C33.2892 54.2074 33.2902 54.2063 33.2897 54.2069V54.2069ZM46.7905 15.3847C46.7905 15.3846 46.7908 15.3847 46.7905 15.3847V15.3847ZM26.2422 8.87996C27.2139 7.68455 27.6998 7.08676 28.1753 6.69775C30.4004 4.87809 33.599 4.87809 35.8241 6.69775C36.2996 7.08676 36.7854 7.68447 37.7572 8.87988C38.2145 9.44239 38.443 9.72375 38.6873 9.96308C39.8012 11.0544 41.2937 11.6727 42.8532 11.6886C43.195 11.6921 43.5556 11.6549 44.2766 11.5804C45.8092 11.4222 46.5753 11.3431 47.1868 11.4043C50.0465 11.6908 52.3086 13.9528 52.595 16.8127C52.6564 17.4241 52.5772 18.1903 52.419 19.7227C52.3444 20.4437 52.3073 20.8043 52.3108 21.1463C52.3268 22.7056 52.9449 24.1983 54.0364 25.3121C54.2756 25.5564 54.5569 25.785 55.1193 26.2421C56.3148 27.2137 56.9126 27.6997 57.3017 28.1754C59.1212 30.4002 59.1212 33.5991 57.3017 35.8239C56.9126 36.2997 56.3148 36.7855 55.1193 37.757C54.5569 38.2141 54.2756 38.4429 54.0364 38.6871C52.9449 39.801 52.3268 41.2938 52.3108 42.853C52.3073 43.1951 52.3444 43.5557 52.419 44.2767C52.5772 45.809 52.6564 46.5751 52.595 47.1866C52.3086 50.0466 50.0465 52.3085 47.1868 52.5951C46.5753 52.6562 45.8092 52.5773 44.2766 52.4189C43.5556 52.3445 43.195 52.3071 42.8532 52.3106C41.2937 52.3266 39.8012 52.945 38.6873 54.0362C38.443 54.2757 38.2145 54.5567 37.7572 55.1191C36.7854 56.3146 36.2996 56.9125 35.8241 57.3015C33.599 59.1213 30.4004 59.1213 28.1753 57.3015C27.6998 56.9125 27.214 56.3149 26.2422 55.1194C25.7853 54.5573 25.5563 54.2757 25.3121 54.0362C24.1983 52.945 22.7056 52.3266 21.1463 52.3106C20.8043 52.3071 20.4438 52.3445 19.7227 52.4189C18.1903 52.5773 17.4241 52.6562 16.8127 52.5951C13.9528 52.3085 11.6908 50.0466 11.4043 47.1866C11.3431 46.5751 11.4222 45.809 11.5804 44.2767C11.6549 43.5557 11.6921 43.1951 11.6886 42.853C11.6727 41.2938 11.0544 39.801 9.9631 38.6871C9.72377 38.4429 9.44251 38.2143 8.88001 37.7573C7.68459 36.7858 7.08678 36.2997 6.69777 35.8239C4.87809 33.5991 4.87809 30.4002 6.69777 28.1754C7.08678 27.6997 7.68449 27.2138 8.8799 26.2423C9.44243 25.785 9.72374 25.5564 9.9631 25.3121C11.0544 24.1983 11.6727 22.7056 11.6886 21.1463C11.6921 20.8043 11.6549 20.4437 11.5804 19.7227C11.4222 18.1904 11.3431 17.4241 11.4043 16.8127C11.6908 13.9528 13.9528 11.6908 16.8127 11.4043C17.4241 11.3431 18.1903 11.4222 19.7226 11.5804C20.4437 11.6549 20.8043 11.6921 21.1463 11.6886C22.7056 11.6727 24.1983 11.0544 25.3121 9.96308C25.5564 9.72375 25.785 9.44247 26.2422 8.87996ZM41.4142 28.0805C42.1953 27.2994 42.1953 26.0332 41.4142 25.2521C40.6332 24.4711 39.367 24.4711 38.586 25.2521L29.3334 34.5045L25.4143 30.5855C24.6333 29.8045 23.3669 29.8045 22.5859 30.5855C21.8048 31.3666 21.8048 32.6327 22.5859 33.4138L27.9193 38.7471C28.7004 39.5282 29.9665 39.5282 30.7476 38.7471L41.4142 28.0805Z" fill="white"/>
</g>
</g>
<defs>
<clipPath id="clip0_525_281">
<rect width="64" height="64" fill="white"/>
</clipPath>
</defs>
</svg>
