<svg width="64" height="64" viewBox="0 0 64 64" fill="none" xmlns="http://www.w3.org/2000/svg">
<path d="M53.9698 17.9998C52.6541 18.0077 51.3945 18.5339 50.4641 19.4642C49.5338 20.3946 49.0076 21.6541 48.9998 22.9698C49.0013 23.1636 49.013 23.3572 49.0348 23.5498L33.3798 28.0998C32.9161 27.0511 32.202 26.1324 31.3001 25.4244C30.3982 24.7163 29.3362 24.2407 28.2074 24.0392C27.0787 23.8377 25.9177 23.9166 24.8266 24.269C23.7354 24.6213 22.7475 25.2363 21.9498 26.0598L16.4998 22.0748C16.7774 21.4078 16.9201 20.6923 16.9198 19.9698C16.9178 19.6816 16.8927 19.394 16.8448 19.1098L32.7748 12.6598C33.4547 13.7321 34.509 14.5131 35.7329 14.8511C36.9567 15.1891 38.2625 15.0598 39.3963 14.4885C40.5301 13.9171 41.4109 12.9445 41.8674 11.7598C42.3239 10.5751 42.3235 9.26293 41.8663 8.07849C41.409 6.89406 40.5276 5.92201 39.3934 5.35139C38.2592 4.78076 36.9534 4.65234 35.7297 4.9911C34.5061 5.32986 33.4522 6.11158 32.773 7.18426C32.0938 8.25693 31.8378 9.54387 32.0548 10.7948L16.1948 17.2248C15.6211 16.2293 14.7484 15.4397 13.7007 14.968C12.6529 14.4964 11.4833 14.3666 10.3576 14.5972C9.23198 14.8278 8.20754 15.407 7.42963 16.2526C6.65173 17.0983 6.15986 18.1674 6.02383 19.3083C5.88779 20.4493 6.1145 21.6041 6.67177 22.6089C7.22904 23.6137 8.08859 24.4176 9.12846 24.9063C10.1683 25.3951 11.3357 25.544 12.465 25.332C13.5943 25.1199 14.6281 24.5576 15.4198 23.7248L20.7698 27.6498C20.2239 28.6641 19.9387 29.798 19.9398 30.9498C19.9421 32.0428 20.1991 33.1202 20.6903 34.0966C21.1815 35.073 21.8935 35.9215 22.7698 36.5748L18.3998 44.4998C17.0289 43.8808 15.4755 43.7993 14.0474 44.2714C12.6192 44.7435 11.4205 45.7347 10.6886 47.0488C9.95679 48.3629 9.7452 49.904 10.0958 51.3667C10.4464 52.8294 11.3336 54.1071 12.5817 54.9466C13.8297 55.7862 15.3476 56.1263 16.8346 55.8997C18.3215 55.6731 19.6692 54.8962 20.6104 53.723C21.5517 52.5498 22.018 51.0658 21.917 49.565C21.8159 48.0643 21.1549 46.6562 20.0648 45.6198L24.5248 37.5348C25.3072 37.826 26.1349 37.9766 26.9698 37.9798C28.7932 37.9736 30.5423 37.256 31.8448 35.9798L42.5348 45.4998C42.1658 46.2818 41.9729 47.1352 41.9698 47.9998C41.9688 49.0907 42.2653 50.1613 42.8274 51.0963C43.3894 52.0312 44.1958 52.7953 45.1597 53.3062C46.1235 53.8172 47.2085 54.0556 48.2978 53.996C49.387 53.9364 50.4395 53.5809 51.3418 52.9678C52.2441 52.3547 52.9622 51.5071 53.4189 50.5164C53.8755 49.5256 54.0534 48.4291 53.9333 47.3448C53.8133 46.2605 53.3999 45.2295 52.7377 44.3626C52.0754 43.4957 51.1893 42.8257 50.1748 42.4248L53.7998 27.9248H53.9698C55.2879 27.9248 56.552 27.4012 57.4841 26.4692C58.4161 25.5371 58.9398 24.273 58.9398 22.9548C58.9398 21.6367 58.4161 20.3726 57.4841 19.4405C56.552 18.5085 55.2879 17.9848 53.9698 17.9848V17.9998ZM36.9698 6.99983C37.5572 6.99983 38.1314 7.17402 38.6198 7.50036C39.1082 7.82671 39.4889 8.29056 39.7137 8.83326C39.9385 9.37596 39.9973 9.97312 39.8827 10.5492C39.7681 11.1254 39.4852 11.6546 39.0699 12.0699C38.6545 12.4853 38.1253 12.7682 37.5492 12.8828C36.973 12.9974 36.3759 12.9385 35.8332 12.7138C35.2905 12.489 34.8266 12.1083 34.5003 11.6199C34.1739 11.1315 33.9998 10.5572 33.9998 9.96983C34.0011 9.18254 34.3144 8.42788 34.8711 7.87118C35.4278 7.31449 36.1825 7.00115 36.9698 6.99983ZM11.4698 23.4398C10.7835 23.4398 10.1126 23.2363 9.54193 22.855C8.97129 22.4737 8.52653 21.9318 8.26389 21.2977C8.00126 20.6637 7.93254 19.966 8.06643 19.2929C8.20032 18.6198 8.53081 18.0015 9.01609 17.5162C9.50138 17.0309 10.1197 16.7004 10.7928 16.5665C11.4659 16.4326 12.1636 16.5013 12.7977 16.764C13.4317 17.0266 13.9737 17.4714 14.355 18.042C14.7362 18.6126 14.9398 19.2835 14.9398 19.9698C14.9442 20.6047 14.771 21.2282 14.4398 21.7698C14.4152 21.8064 14.3934 21.8449 14.3748 21.8848C14.0554 22.3626 13.6233 22.7544 13.1167 23.0256C12.61 23.2968 12.0444 23.439 11.4698 23.4398ZM15.9698 53.9398C15.1846 53.9398 14.417 53.707 13.7641 53.2708C13.1113 52.8345 12.6024 52.2145 12.302 51.4891C12.0015 50.7637 11.9229 49.9654 12.076 49.1953C12.2292 48.4252 12.6073 47.7178 13.1625 47.1626C13.7178 46.6074 14.4251 46.2293 15.1952 46.0761C15.9654 45.9229 16.7636 46.0015 17.489 46.302C18.2144 46.6025 18.8345 47.1114 19.2707 47.7642C19.7069 48.4171 19.9398 49.1846 19.9398 49.9698C19.9384 51.0223 19.5197 52.0313 18.7755 52.7756C18.0313 53.5198 17.0223 53.9385 15.9698 53.9398ZM26.9698 35.9998C25.9749 35.9998 25.0024 35.7048 24.1752 35.1521C23.3481 34.5994 22.7033 33.8138 22.3226 32.8947C21.9419 31.9756 21.8423 30.9643 22.0364 29.9885C22.2305 29.0128 22.7095 28.1165 23.413 27.4131C24.1165 26.7096 25.0127 26.2306 25.9884 26.0365C26.9642 25.8424 27.9755 25.942 28.8947 26.3227C29.8138 26.7034 30.5993 27.3481 31.152 28.1753C31.7048 29.0025 31.9998 29.975 31.9998 30.9698C31.9984 32.3035 31.4681 33.5821 30.525 34.5251C29.582 35.4681 28.3034 35.9985 26.9698 35.9998ZM51.9698 47.9998C51.9698 48.791 51.7352 49.5643 51.2956 50.2221C50.8561 50.8799 50.2314 51.3926 49.5005 51.6953C48.7696 51.9981 47.9653 52.0773 47.1894 51.923C46.4135 51.7686 45.7007 51.3877 45.1413 50.8283C44.5819 50.2688 44.201 49.5561 44.0466 48.7802C43.8923 48.0043 43.9715 47.2 44.2742 46.4691C44.577 45.7382 45.0897 45.1135 45.7475 44.674C46.4053 44.2344 47.1786 43.9998 47.9698 43.9998C49.0306 43.9998 50.048 44.4213 50.7982 45.1714C51.5483 45.9215 51.9698 46.939 51.9698 47.9998ZM48.2148 41.9998H47.9698C47.1686 42.0011 46.3758 42.1628 45.6381 42.4753C44.9005 42.7879 44.2329 43.2451 43.6748 43.8198L33.0748 34.4448C33.6847 33.3795 34.0037 32.1724 33.9998 30.9448C33.9967 30.6287 33.9733 30.313 33.9298 29.9998L49.6648 25.4198C50.1757 26.2926 50.9393 26.99 51.8548 27.4198L48.2148 41.9998ZM53.9698 25.9298C53.3823 25.9298 52.8081 25.7556 52.3197 25.4293C51.8313 25.1029 51.4506 24.6391 51.2258 24.0964C51.001 23.5537 50.9422 22.9565 51.0568 22.3804C51.1714 21.8043 51.4543 21.2751 51.8696 20.8597C52.285 20.4444 52.8142 20.1615 53.3903 20.0469C53.9665 19.9323 54.5636 19.9911 55.1063 20.2159C55.649 20.4407 56.1129 20.8214 56.4392 21.3098C56.7656 21.7982 56.9398 22.3724 56.9398 22.9598C56.9404 23.3505 56.8641 23.7375 56.7152 24.0987C56.5663 24.4599 56.3477 24.7882 56.0719 25.0649C55.7961 25.3417 55.4686 25.5613 55.1079 25.7115C54.7472 25.8616 54.3604 25.9392 53.9698 25.9398V25.9298Z" fill="#5379FE"/>
</svg>
