<svg width="64" height="64" viewBox="0 0 64 64" fill="none" xmlns="http://www.w3.org/2000/svg">
<g id="Home" clip-path="url(#clip0_0_1)">
<g id="Frame 514091">
<g id="Group 513250">
<g id="Rectangle 40714" filter="url(#filter0_d_0_1)">
</g>
<g id="Group 513249">
<g id="Group 513247">
<g id="fi_12350860">
<path id="Vector" d="M55.0294 39.8888C54.972 39.8768 54.9321 39.8275 54.9321 39.7689V24.2311C54.9321 24.1724 54.972 24.1233 55.0294 24.1111C57.2607 23.6405 58.9403 21.6589 58.9403 19.2898C58.9403 16.5744 56.7293 14.3633 54.0124 14.3633C52.5597 14.3633 51.2517 14.9964 50.3493 16.0019C50.3101 16.0456 50.2475 16.0556 50.1967 16.0263L36.737 8.255C36.6861 8.22569 36.6635 8.16617 36.682 8.11036C37.7152 4.98358 35.383 1.6543 31.9992 1.6543C28.6326 1.6543 26.2829 4.95811 27.3167 8.11049C27.335 8.16617 27.3124 8.22556 27.2617 8.25487L13.8017 16.0264C13.751 16.0557 13.6883 16.0457 13.6491 16.0021C12.7473 14.9965 11.4393 14.3634 9.98603 14.3634C7.26987 14.3634 5.05957 16.5744 5.05957 19.2899C5.05957 21.659 6.73931 23.6405 8.96984 24.1113C9.02719 24.1233 9.06712 24.1726 9.06712 24.2312V39.769C9.06712 39.8276 9.02706 39.8768 8.96984 39.8889C6.73931 40.3589 5.0597 42.3411 5.0597 44.7088C5.0597 47.4257 7.27 49.6359 9.98616 49.6359C11.4395 49.6359 12.7475 49.002 13.6493 47.9978C13.6884 47.9543 13.751 47.9443 13.8017 47.9737L27.2617 55.7452C27.3125 55.7745 27.335 55.8338 27.3167 55.8894C26.2827 59.0464 28.6351 62.3449 31.9991 62.3449C35.3801 62.3449 37.7152 59.021 36.6818 55.8896C36.6634 55.8339 36.6861 55.7744 36.7369 55.745L50.1967 47.9737C50.2474 47.9443 50.31 47.9543 50.3492 47.9978C51.2517 49.002 52.5596 49.6359 54.0123 49.6359C56.7292 49.6359 58.9402 47.4257 58.9402 44.7088C58.9403 42.341 57.2607 40.3588 55.0294 39.8888ZM32.9189 11.5214C32.9189 11.4628 32.959 11.4135 33.0163 11.4015C34.0569 11.1826 34.9773 10.6345 35.6625 9.87139C35.7016 9.82787 35.7642 9.81788 35.8149 9.84706L49.2747 17.6178C49.3256 17.6471 49.3482 17.7064 49.3299 17.7622C49.0041 18.7561 49.005 19.8265 49.33 20.8205C49.3482 20.8762 49.3256 20.9354 49.2747 20.9648L43.0095 24.5811C42.9901 24.5924 42.9707 24.5975 42.9482 24.5975H33.0414C32.9738 24.5975 32.9188 24.5425 32.9188 24.4749L32.9189 11.5214ZM14.6693 17.7622C14.6511 17.7065 14.6738 17.6473 14.7245 17.6179L28.1843 9.84719C28.235 9.81788 28.2976 9.82787 28.3368 9.87139C29.0226 10.6344 29.9416 11.1825 30.9821 11.4015C31.0395 11.4135 31.0794 11.4628 31.0794 11.5214V24.475C31.0794 24.5426 31.0244 24.5977 30.9568 24.5977H21.05C21.0274 24.5977 21.0082 24.5925 20.9887 24.5813L14.7241 20.9649C14.6734 20.9356 14.6506 20.8763 14.6689 20.8206C14.9933 19.8286 14.9942 18.7539 14.6693 17.7622ZM13.6493 41.4202C12.9641 40.6564 12.0444 40.1077 11.0031 39.8887C10.9458 39.8766 10.9057 39.8274 10.9057 39.7687V24.2311C10.9057 24.1724 10.9457 24.1233 11.003 24.1111C12.0443 23.891 12.9641 23.3427 13.6494 22.579C13.6886 22.5354 13.7512 22.5253 13.8018 22.5546L20.0945 26.1872C20.1139 26.1984 20.1281 26.2125 20.1394 26.2321L25.0795 34.7917C25.1133 34.8502 25.0931 34.9253 25.0346 34.9591L13.8018 41.4444C13.751 41.4738 13.6884 41.4638 13.6493 41.4202ZM31.0795 52.4786C31.0795 52.5372 31.0395 52.5865 30.9823 52.5986C29.9416 52.8174 29.0226 53.3657 28.3369 54.1293C28.2977 54.1728 28.2351 54.1828 28.1844 54.1535L14.7245 46.3827C14.6738 46.3534 14.651 46.2942 14.6693 46.2385C14.9938 45.2455 14.9939 44.1727 14.6693 43.1794C14.6511 43.1237 14.6738 43.0645 14.7245 43.0352L25.9542 36.5521C26.0127 36.5183 26.0879 36.5385 26.1216 36.5969L31.0632 45.155C31.0744 45.1744 31.0795 45.1938 31.0795 45.2163V52.4786ZM31.8931 42.9142L22.4856 26.6207C22.4383 26.5387 22.4971 26.4368 22.5917 26.4368H41.4067C41.5013 26.4368 41.5602 26.5387 41.5128 26.6207L32.1053 42.9142C32.058 42.9961 31.9405 42.9961 31.8931 42.9142ZM49.2749 46.3829L35.815 54.1536C35.7643 54.1829 35.7016 54.173 35.6626 54.1293C34.9773 53.3655 34.0569 52.8176 33.0164 52.5986C32.9591 52.5865 32.919 52.5372 32.919 52.4786V45.2164C32.919 45.1939 32.9241 45.1746 32.9354 45.1551L37.877 36.597C37.9108 36.5385 37.9859 36.5184 38.0444 36.5522L49.2749 43.0353C49.3257 43.0646 49.3483 43.1239 49.3302 43.1795C49.0047 44.1751 49.0047 45.2434 49.3302 46.2386C49.3482 46.2943 49.3256 46.3536 49.2749 46.3829ZM53.0927 39.7689C53.0927 39.8275 53.0527 39.8768 52.9953 39.8888C51.9547 40.1078 51.0356 40.6565 50.3492 41.4203C50.31 41.4638 50.2474 41.4738 50.1967 41.4445L38.964 34.9593C38.9055 34.9255 38.8854 34.8503 38.919 34.7918L43.8598 26.2322C43.8711 26.2128 43.8853 26.1986 43.9048 26.1873L50.1966 22.5546C50.2473 22.5253 50.3099 22.5353 50.349 22.5788C51.0355 23.3426 51.9547 23.8908 52.9953 24.1111C53.0527 24.1233 53.0926 24.1726 53.0926 24.2311L53.0927 39.7689ZM37.7029 28.6979C37.8674 28.9818 37.8674 29.3329 37.7029 29.6168L32.7964 38.1163C32.4436 38.7271 31.5554 38.7283 31.2034 38.1163L26.2955 29.6168C25.9432 29.006 26.3849 28.2377 27.0927 28.2377H36.9065C37.2347 28.2377 37.5392 28.4132 37.7029 28.6979Z" fill="#5379FE"/>
</g>
</g>
</g>
</g>
</g>
</g>
<defs>
<filter id="filter0_d_0_1" x="-79" y="-79" width="438" height="448" filterUnits="userSpaceOnUse" color-interpolation-filters="sRGB">
<feFlood flood-opacity="0" result="BackgroundImageFix"/>
<feColorMatrix in="SourceAlpha" type="matrix" values="0 0 0 0 0 0 0 0 0 0 0 0 0 0 0 0 0 0 127 0" result="hardAlpha"/>
<feMorphology radius="8" operator="dilate" in="SourceAlpha" result="effect1_dropShadow_0_1"/>
<feOffset/>
<feGaussianBlur stdDeviation="10"/>
<feComposite in2="hardAlpha" operator="out"/>
<feColorMatrix type="matrix" values="0 0 0 0 0 0 0 0 0 0 0 0 0 0 0 0 0 0 0.17 0"/>
<feBlend mode="normal" in2="BackgroundImageFix" result="effect1_dropShadow_0_1"/>
<feBlend mode="normal" in="SourceGraphic" in2="effect1_dropShadow_0_1" result="shape"/>
</filter>
<clipPath id="clip0_0_1">
<rect width="1920" height="7189" fill="white" transform="translate(-208 -2522)"/>
</clipPath>
</defs>
</svg>
