<svg width="64" height="64" viewBox="0 0 64 64" fill="none" xmlns="http://www.w3.org/2000/svg">
<g clip-path="url(#clip0_525_266)">
<path d="M61.1875 27.1875C59.9653 27.1875 58.9233 27.9712 58.5361 29.0625H53.1875V27.9687C53.1875 27.4512 52.7681 27.0312 52.25 27.0312C51.7324 27.0312 51.3125 27.4512 51.3125 27.9687V32.539C51.3125 37.2143 49.7452 41.6166 46.899 44.9345C42.9239 49.5668 37.9122 53.0893 32.0001 55.4061C26.7145 53.3349 22.1349 50.2904 18.3869 46.3564C18.0295 45.9814 17.4362 45.9667 17.0612 46.3241C16.6867 46.6811 16.672 47.2743 17.029 47.6493C18.3229 49.0072 19.7116 50.2621 21.1876 51.4149V58.5365C20.0968 58.9232 19.3126 59.9652 19.3126 61.1879C19.3126 62.7386 20.5744 64.0003 22.1251 64.0003C23.6759 64.0003 24.9376 62.7386 24.9376 61.1879C24.9376 59.9657 24.1539 58.9232 23.0626 58.5365V52.7885C25.6359 54.559 28.4464 56.0409 31.4776 57.2152C31.6466 57.2802 31.8233 57.3129 32.0006 57.3129C32.1773 57.3129 32.3541 57.2802 32.5221 57.2152C38.793 54.7865 44.1089 51.0658 48.3223 46.1552C50.2715 43.8832 51.6758 41.1557 52.461 38.1875H55.6299C56.0171 39.2788 57.0591 40.0624 58.2812 40.0624C59.832 40.0624 61.0937 38.8007 61.0937 37.25C61.0937 35.6992 59.832 34.4375 58.2812 34.4375C57.0591 34.4375 56.0171 35.2216 55.6299 36.3125H52.8687C53.0796 35.082 53.1875 33.8193 53.1875 32.539V30.9375H58.5361C58.9233 32.0288 59.9653 32.8125 61.1875 32.8125C62.7383 32.8125 64 31.5508 64 30C64 28.4492 62.7383 27.1875 61.1875 27.1875ZM22.1251 62.1249C21.6081 62.1249 21.1876 61.7045 21.1876 61.1874C21.1876 60.6703 21.6081 60.2499 22.1251 60.2499C22.6422 60.2499 23.0626 60.6703 23.0626 61.1874C23.0626 61.7045 22.6422 62.1249 22.1251 62.1249ZM58.2812 36.3125C58.7983 36.3125 59.2187 36.7329 59.2187 37.25C59.2187 37.767 58.7983 38.1875 58.2812 38.1875C57.7642 38.1875 57.3438 37.767 57.3438 37.25C57.3438 36.7329 57.7642 36.3125 58.2812 36.3125ZM61.1875 30.9375C60.6704 30.9375 60.25 30.5171 60.25 30C60.25 29.4829 60.6704 29.0625 61.1875 29.0625C61.7046 29.0625 62.125 29.4829 62.125 30C62.125 30.5171 61.7046 30.9375 61.1875 30.9375Z" fill="#5379FE"/>
<path d="M12.6875 32.5389V15.4843C16.1264 14.6713 19.6991 13.1562 23.3134 10.977C28.6713 7.74704 35.3285 7.74704 40.6864 10.977C42.2948 11.9462 43.8944 12.7836 45.4778 13.4868C45.4954 13.4951 45.513 13.5034 45.5316 13.5102C47.4886 14.3759 49.4207 15.037 51.3123 15.4843V23.9579C51.3123 24.476 51.7317 24.8954 52.2498 24.8954C52.7679 24.8954 53.1873 24.476 53.1873 23.9579V15.1401C53.1873 14.4697 52.7254 13.8803 52.0887 13.7387C50.367 13.3559 48.6033 12.7807 46.8123 12.0219V5.46385C47.9036 5.07664 48.6873 4.03465 48.6873 2.81249C48.6873 1.26171 47.4256 0 45.8748 0C44.324 0 43.0623 1.26171 43.0623 2.81249C43.0623 4.03465 43.8465 5.07664 44.9373 5.46385V11.166C43.8509 10.6333 42.7557 10.0351 41.6546 9.37154C35.6996 5.78123 28.3002 5.78172 22.3456 9.37154C18.7753 11.5234 15.2646 12.9931 11.9111 13.7387C11.2744 13.8803 10.8125 14.4697 10.8125 15.1401V20.8124H5.46385C5.07664 19.7211 4.03465 18.9374 2.81249 18.9374C1.26171 18.9374 0 20.1991 0 21.7499C0 23.3007 1.26171 24.5624 2.81249 24.5624C4.03465 24.5624 5.07664 23.7787 5.46385 22.6874H10.8125V28.0624H8.37008C7.98288 26.9711 6.94089 26.1874 5.71873 26.1874C4.16795 26.1874 2.90624 27.4491 2.90624 28.9999C2.90624 30.5507 4.16795 31.8124 5.71873 31.8124C6.94089 31.8124 7.98288 31.0287 8.37008 29.9374H10.8125V32.5389C10.8125 37.0321 12.1103 41.2464 14.5649 44.7259C14.7475 44.9847 15.0375 45.1229 15.332 45.1229C15.5185 45.1229 15.7075 45.0672 15.8715 44.9515C16.2944 44.6527 16.3954 44.0677 16.0971 43.6448C13.8666 40.4832 12.6875 36.6429 12.6875 32.5389ZM45.8748 1.87499C46.3919 1.87499 46.8123 2.2954 46.8123 2.81249C46.8123 3.32958 46.3919 3.74998 45.8748 3.74998C45.3577 3.74998 44.9373 3.32958 44.9373 2.81249C44.9373 2.2954 45.3577 1.87499 45.8748 1.87499ZM2.81249 22.6874C2.2954 22.6874 1.87499 22.267 1.87499 21.7499C1.87499 21.2328 2.2954 20.8124 2.81249 20.8124C3.32958 20.8124 3.74999 21.2328 3.74999 21.7499C3.74999 22.267 3.32958 22.6874 2.81249 22.6874ZM5.71873 29.9374C5.20164 29.9374 4.78123 29.517 4.78123 28.9999C4.78123 28.4828 5.20164 28.0624 5.71873 28.0624C6.23582 28.0624 6.65622 28.4828 6.65622 28.9999C6.65622 29.517 6.23582 29.9374 5.71873 29.9374Z" fill="#5379FE"/>
<path d="M21.6865 16.144C22.1504 15.9145 22.3408 15.352 22.1113 14.8882C21.8818 14.4243 21.3193 14.2339 20.855 14.4634C19.081 15.3408 17.2998 16.0688 15.5615 16.6274C14.9639 16.8193 14.5625 17.3691 14.5625 17.9956V32.539C14.5625 36.767 15.9692 40.7352 18.5234 43.7128C22.02 47.7879 26.3789 50.9676 31.4794 53.1649C31.6445 53.2362 31.8222 53.2718 31.9999 53.2718C32.1777 53.2718 32.3554 53.2362 32.5209 53.1649C37.621 50.9681 41.9794 47.7884 45.4755 43.7137C48.0301 40.7352 49.4374 36.767 49.4374 32.539V17.9956C49.4374 17.3691 49.036 16.8193 48.4383 16.6274C45.5819 15.7099 42.6483 14.3491 39.7187 12.583C37.3905 11.1792 34.7216 10.4375 31.9999 10.4375C29.2788 10.4375 26.6098 11.1792 24.2812 12.583L24.082 12.7026C23.6372 12.9678 23.4917 13.5434 23.7568 13.9883C24.0219 14.4331 24.5971 14.5786 25.042 14.3135C25.1113 14.272 25.1806 14.2305 25.2495 14.189C27.2856 12.9614 29.6201 12.3125 31.9999 12.3125C34.3803 12.3125 36.7148 12.9614 38.7509 14.189C41.7016 15.9678 44.6644 17.3545 47.5624 18.3139V32.5385C47.5624 36.3192 46.3158 39.8544 44.0526 42.4925C40.7943 46.2899 36.7401 49.2679 31.9999 51.3465C27.2592 49.2674 23.205 46.2894 19.9468 42.4921C17.6836 39.8539 16.4375 36.3192 16.4375 32.5385V18.3139C18.1675 17.7412 19.9316 17.0117 21.6865 16.144Z" fill="#5379FE"/>
<path d="M32 21.9375C29.4155 21.9375 27.3125 24.04 27.3125 26.625V28.1875H27C25.7939 28.1875 24.8125 29.1689 24.8125 30.375V37.8749C24.8125 39.081 25.7939 40.0624 27 40.0624H37C38.206 40.0624 39.1874 39.081 39.1874 37.8749V30.375C39.1874 29.1689 38.206 28.1875 37 28.1875H36.6875V26.625C36.6875 24.04 34.5849 21.9375 32 21.9375ZM29.1875 26.625C29.1875 25.0742 30.4492 23.8125 32 23.8125C33.5507 23.8125 34.8125 25.0742 34.8125 26.625V28.1875H29.1875V26.625ZM37.3125 30.375V37.8749C37.3125 38.0473 37.1723 38.1874 37 38.1874H27C26.8276 38.1874 26.6875 38.0473 26.6875 37.8749V30.375C26.6875 30.2026 26.8276 30.0625 27 30.0625H37C37.1723 30.0625 37.3125 30.2026 37.3125 30.375Z" fill="#5379FE"/>
<path d="M32 30.375C30.4492 30.375 29.1875 31.6367 29.1875 33.1875C29.1875 34.4097 29.9717 35.4516 31.0625 35.8388V36.9375C31.0625 37.4551 31.4824 37.875 32 37.875C32.5181 37.875 32.9375 37.4551 32.9375 36.9375V35.8388C34.0288 35.4516 34.8125 34.4097 34.8125 33.1875C34.8125 31.6367 33.5508 30.375 32 30.375ZM32 34.125C31.4829 34.125 31.0625 33.7046 31.0625 33.1875C31.0625 32.6704 31.4829 32.25 32 32.25C32.5171 32.25 32.9375 32.6704 32.9375 33.1875C32.9375 33.7046 32.5171 34.125 32 34.125Z" fill="#5379FE"/>
</g>
<defs>
<clipPath id="clip0_525_266">
<rect width="64" height="64" fill="#5379FE"/>
</clipPath>
</defs>
</svg>