<svg width="64" height="64" viewBox="0 0 64 64" fill="none" xmlns="http://www.w3.org/2000/svg">
<g clip-path="url(#clip0_446_1472)">
<path d="M58.6667 6.4H30.3701C29.1509 6.4 28.0544 5.7216 27.5083 4.63147L26.6667 2.94827C25.7557 1.1296 23.9296 0 21.8965 0H5.33333C2.39253 0 0 2.39253 0 5.33333V52.2667C0 55.2075 2.39253 57.6 5.33333 57.6H12.8V61.8539C12.8 63.0368 13.7621 64 14.9461 64H19.5179C20.0811 63.9776 20.6059 63.7536 20.992 63.3664L22.2112 62.1472C22.6656 61.6939 22.8277 61.0229 22.6293 60.3723L21.9232 58.2507L24.0619 58.9675C24.6656 59.1605 25.3269 59.0069 25.8176 58.5419L26.7211 57.6277C26.7296 57.6192 26.7339 57.6085 26.7424 57.6011H58.6677C61.6085 57.6011 64.0011 55.2085 64.0011 52.2677V11.7333C64.0011 8.79253 61.6075 6.4 58.6667 6.4ZM5.33333 2.13333H21.8965C23.1157 2.13333 24.2123 2.81173 24.7584 3.90187L25.6 5.58507C26.5109 7.40373 28.3371 8.53333 30.3701 8.53333H58.6667C60.4309 8.53333 61.8667 9.96907 61.8667 11.7333V16.0277C60.9728 15.3504 59.872 14.9333 58.6667 14.9333V13.8667C58.6667 12.1024 57.2309 10.6667 55.4667 10.6667H8.53333C6.76907 10.6667 5.33333 12.1024 5.33333 13.8667V21.3333C4.128 21.3333 3.0272 21.7504 2.13333 22.4277V5.33333C2.13333 3.56907 3.56907 2.13333 5.33333 2.13333ZM56.5333 14.9333H42.1013C40.1045 14.9333 38.2315 16.0885 37.3259 17.8859L36.4992 19.5627C35.9563 20.6389 34.832 21.3333 33.632 21.3333H7.46667V13.8667C7.46667 13.2779 7.94453 12.8 8.53333 12.8H55.4667C56.0555 12.8 56.5333 13.2779 56.5333 13.8667V14.9333ZM24.4437 51.7035C24.0235 52.1227 23.8805 52.7339 24.0672 53.2971L25.0581 56.2752L24.4811 56.8597L21.5061 55.8613C20.9483 55.6757 20.3349 55.8155 19.9157 56.2368C19.4933 56.6592 19.3472 57.2747 19.5371 57.8411L20.528 60.8149L19.4795 61.8667L14.9344 61.8539L14.9429 57.3163L25.5307 46.7392L30.0619 51.2704L29.0165 52.3168L26.0384 51.3259C25.4752 51.1392 24.8629 51.2821 24.4459 51.7024L24.4437 51.7035ZM26.2837 44.4683L27.9403 42.8117C28.224 42.528 28.3243 42.1109 28.2005 41.7291C26.9589 37.8805 27.9605 33.7152 30.8149 30.8619C32.9003 28.7808 35.6395 27.7397 38.3787 27.7397C41.1179 27.7397 43.856 28.7808 45.9392 30.8597C50.1003 35.0304 50.1003 41.8155 45.9392 45.9861C43.0859 48.8416 38.9216 49.8421 35.072 48.6005C34.6901 48.4757 34.2731 48.5781 33.9893 48.8608L32.3232 50.5173L26.2837 44.4683ZM61.8667 52.2677C61.8667 54.032 60.4309 55.4677 58.6667 55.4677H27.0368L26.4544 53.7152L28.5515 54.4117C29.1904 54.6443 29.9008 54.4768 30.3445 54.0032L31.7771 52.5707C31.9573 52.6187 32.1408 52.6517 32.3264 52.6517C32.8757 52.6517 33.4229 52.4437 33.84 52.0256L35.0485 50.8171C39.4827 52.0085 44.1813 50.7616 47.4475 47.4933C52.4384 42.4928 52.4384 34.3563 47.4453 29.3525C42.4448 24.3627 34.3083 24.3627 29.3056 29.3525C26.0373 32.6197 24.7936 37.3173 25.9819 41.7515L24.7733 42.96C24.2155 43.5179 24.0395 44.3093 24.2283 45.0219L13.7739 55.4667H5.33227C3.568 55.4667 2.13227 54.0309 2.13227 52.2667V26.6667C2.13227 24.9024 3.568 23.4667 5.33227 23.4667H33.6309C35.6277 23.4667 37.5008 22.3115 38.4064 20.5141L39.2331 18.8373C39.776 17.7611 40.9003 17.0667 42.1003 17.0667H58.6656C60.4299 17.0667 61.8656 18.5024 61.8656 20.2667V52.2667L61.8667 52.2677Z" fill="#5379FE"/>
<path d="M40.5333 40.5333C42.8863 40.5333 44.7999 38.6197 44.7999 36.2667C44.7999 33.9136 42.8863 32 40.5333 32C38.1802 32 36.2666 33.9136 36.2666 36.2667C36.2666 38.6197 38.1802 40.5333 40.5333 40.5333ZM40.5333 34.1333C41.7098 34.1333 42.6666 35.0901 42.6666 36.2667C42.6666 37.4432 41.7098 38.4 40.5333 38.4C39.3567 38.4 38.3999 37.4432 38.3999 36.2667C38.3999 35.0901 39.3567 34.1333 40.5333 34.1333Z" fill="#5379FE"/>
</g>
<defs>
<clipPath id="clip0_446_1472">
<rect width="64" height="64" fill="white"/>
</clipPath>
</defs>
</svg>
