<svg width="64" height="64" viewBox="0 0 64 64" fill="none" xmlns="http://www.w3.org/2000/svg">
<path d="M32.2589 54.6261C30.8149 54.915 29.3303 55.0612 27.8468 55.0612C15.3858 55.0612 5.43463 44.8444 5.43463 32.6373C5.43463 20.2172 15.6295 10.2251 27.8468 10.2251C37.0832 10.2251 45.8196 16.0491 49.0213 25.3041C49.2395 25.9339 49.9246 26.2688 50.5573 26.05C51.187 25.8324 51.5213 25.1443 51.3031 24.514C49.4389 19.1243 45.8278 14.7026 41.2457 11.7601L42.4402 9.69115L43.8285 10.4928C44.4011 10.8236 45.142 10.632 45.4783 10.0506C45.8114 9.47336 45.6139 8.73456 45.036 8.40083C44.8746 8.30759 39.943 5.45986 40.1675 5.58951C39.5891 5.2552 38.8509 5.45449 38.5178 6.03173C38.1846 6.60897 38.3821 7.34777 38.96 7.68149L40.3485 8.48323L39.1576 10.5458C36.0749 8.96547 32.6414 8.0321 29.0526 7.85772V5.43312L30.6557 5.43326C31.3226 5.43326 31.8633 4.89258 31.8633 4.22572C31.8633 3.55885 31.3226 3.01817 30.6557 3.01817C30.4631 3.01815 24.859 3.01756 25.0337 3.01758C24.3668 3.01758 23.8261 3.55826 23.8261 4.22513C23.8261 4.89199 24.3668 5.43267 25.0337 5.43267L26.6375 5.43282V7.87128C23.0511 8.04529 19.6658 8.97262 16.634 10.5158L15.4491 8.46363L16.8367 7.66263C17.414 7.3289 17.6121 6.59069 17.279 6.01286C16.9452 5.43503 16.2076 5.23692 15.6292 5.57064C15.5037 5.64309 10.5524 8.50128 10.7601 8.38138C10.1829 8.7151 9.98474 9.45331 10.3179 10.0311C10.6501 10.6055 11.3869 10.8078 11.9676 10.4734L13.3572 9.67125L14.5368 11.7144C7.62493 16.127 3.01953 23.8464 3.01953 32.6373C3.01953 39.411 5.75029 45.554 10.1601 50.0395L8.61682 56.1131C8.16576 57.8997 8.80963 59.6113 10.2577 60.4739C11.6857 61.3239 13.4941 61.1013 14.8615 59.8436L19.1716 55.8806C21.8769 56.8949 24.7919 57.4763 27.8468 57.4763C29.4889 57.4763 31.1327 57.3142 32.733 56.994C33.3869 56.8631 33.8108 56.2269 33.6799 55.573C33.5496 54.9197 32.914 54.4952 32.2589 54.6261ZM13.2265 58.0659C12.6634 58.5848 12.016 58.7104 11.4936 58.3991C10.9694 58.0866 10.7695 57.4533 10.9582 56.7063L12.1793 51.8997C13.228 52.7602 15.6661 54.3206 16.7241 54.8501L13.2265 58.0659Z" fill="white"/>
<path d="M36.3372 20.3459L37.2942 18.6886C39.0508 19.878 40.5783 21.4031 41.7905 23.1945L40.1391 24.1478C39.5618 24.4815 39.3637 25.2197 39.6968 25.7976C40.0291 26.372 40.7659 26.5742 41.3466 26.2398L42.9984 25.2864C43.1274 25.5521 43.2583 25.8167 43.3743 26.0912C43.6343 26.7056 44.3425 26.9927 44.9563 26.7333C45.5707 26.4739 45.8584 25.7651 45.5984 25.1513C42.6159 18.0964 35.6837 13.3848 27.8652 13.3772C27.8578 13.3771 27.8517 13.373 27.8442 13.373C27.8357 13.373 27.8286 13.3778 27.8201 13.3779C17.2179 13.3926 8.61728 22.0663 8.58865 32.5843C8.58769 32.6043 8.57715 32.6211 8.57715 32.6413C8.57715 32.6625 8.58813 32.6802 8.58924 32.7012C8.62429 43.3122 17.3264 51.9096 27.8466 51.9096C29.731 51.9096 31.6178 51.6325 33.4557 51.0865C33.9524 50.9391 34.3189 50.4809 34.3189 49.9173C34.3183 49.2504 33.7782 48.7097 33.1113 48.7097C32.9362 48.7097 32.7664 48.7475 32.6119 48.817C31.4404 49.1539 30.2479 49.3658 29.0518 49.4512V47.5352C29.0518 46.8683 28.5111 46.3276 27.8442 46.3276C27.1774 46.3276 26.6367 46.8683 26.6367 47.5352V49.4332C24.4471 49.2763 22.377 48.6996 20.4968 47.782L21.4427 46.1437C21.7759 45.5659 21.5783 44.8276 21.0005 44.4939C20.4203 44.159 19.6845 44.3589 19.3507 44.9361L18.3988 46.5849C16.6317 45.3825 15.104 43.8534 13.9033 42.0845L15.5488 41.1343C16.1267 40.8005 16.3242 40.0617 15.9911 39.4845C15.6573 38.9061 14.9185 38.7074 14.3413 39.0423L12.7089 39.9849C11.7941 38.1056 11.2191 36.0369 11.0624 33.8489H12.9498C13.6167 33.8489 14.1573 33.3082 14.1573 32.6413C14.1573 31.9745 13.6167 31.4338 12.9498 31.4338H11.062C11.2178 29.2454 11.7927 27.1764 12.7078 25.2969L14.3413 26.2398C14.923 26.5748 15.6593 26.3712 15.9911 25.7976C16.3242 25.2197 16.1261 24.4815 15.5488 24.1478L13.9025 23.1975C15.1035 21.4291 16.6318 19.9006 18.3995 18.6987L19.3507 20.3459C19.6871 20.9275 20.4281 21.1188 21.0005 20.7881C21.5783 20.4544 21.7759 19.7156 21.4427 19.1384L20.498 17.5024C22.3779 16.5858 24.4476 16.0096 26.6367 15.8529V17.7451C26.6367 18.412 27.1774 18.9526 27.8442 18.9526C28.5111 18.9526 29.0518 18.412 29.0518 17.7451V15.8364C31.2241 15.9907 33.304 16.5618 35.2018 17.4818L34.2452 19.1384C33.9121 19.7156 34.1096 20.4544 34.6874 20.7881C35.26 21.1189 36.0009 20.9273 36.3372 20.3459Z" fill="white"/>
<path d="M33.5465 31.4287H31.6555C31.2594 30.2018 30.2883 29.2433 29.0507 28.8594V23.6079C29.0507 22.9411 28.51 22.4004 27.8431 22.4004C27.1762 22.4004 26.6356 22.9411 26.6356 23.6079V28.8781C25.0437 29.3997 23.8838 30.8759 23.8838 32.6321C23.8838 34.832 25.6733 36.6221 27.8732 36.6221C29.6479 36.6221 31.1383 35.4492 31.6548 33.8438H33.5465C34.2134 33.8438 34.7541 33.3031 34.7541 32.6362C34.7541 31.9694 34.2134 31.4287 33.5465 31.4287ZM29.4464 32.64C29.4419 33.5047 28.7389 34.207 27.8732 34.207C27.0053 34.207 26.2989 33.5006 26.2989 32.6321C26.2989 31.7754 27.0053 31.0779 27.8732 31.0779C28.7404 31.0779 29.4451 31.7734 29.4473 32.6284C29.4473 32.6312 29.4457 32.6334 29.4457 32.6362C29.4457 32.6376 29.4464 32.6387 29.4464 32.64Z" fill="white"/>
<path d="M56.867 47.606H52.1358V46.5052C52.1358 43.7923 52.8847 40.9521 54.4259 37.8212C55.0462 36.56 55.2402 35.1473 54.9855 33.7351C54.5238 31.1679 52.5002 29.0842 49.9501 28.55C47.9755 28.1361 45.9619 28.6136 44.4242 29.8625C42.8882 31.1095 42.0073 32.9603 42.0073 34.9397C42.0073 35.9592 42.2485 36.9763 42.7054 37.8796C44.1972 40.8336 44.9536 43.7274 44.9536 46.481V47.606H40.2343C37.966 47.606 36.1211 49.4515 36.1211 51.7198V54.2717C36.1211 54.9385 36.6618 55.4792 37.3286 55.4792H37.8864V59.7723C37.8864 60.4391 38.4271 60.9798 39.094 60.9798H58.0073C58.6742 60.9798 59.2148 60.4391 59.2148 59.7723V55.4792H59.7732C60.4401 55.4792 60.9808 54.9385 60.9808 54.2717V51.7198C60.9808 49.4515 59.1352 47.606 56.867 47.606ZM44.8611 36.7905C44.5698 36.2151 44.4224 35.5918 44.4224 34.9397C44.4224 33.6909 44.9778 32.524 45.9466 31.7369C46.9306 30.9379 48.1771 30.6478 49.4548 30.9132C51.0521 31.2481 52.3192 32.5535 52.6081 34.162C52.6081 34.1626 52.6081 34.1626 52.6087 34.1632C52.7709 35.0635 52.65 35.9598 52.2585 36.7552C50.5509 40.2251 49.7207 43.4144 49.7207 46.5052V47.606H47.3687V46.481C47.3687 43.346 46.525 40.0853 44.8611 36.7905ZM56.7997 58.5647H40.3015V55.4792H56.7997V58.5647ZM58.5657 53.0641C56.707 53.0641 41.1074 53.0641 38.5362 53.0641V51.7198C38.5362 50.7829 39.298 50.0211 40.2343 50.0211C40.4389 50.0211 57.1238 50.0211 56.867 50.0211C57.8039 50.0211 58.5657 50.7829 58.5657 51.7198V53.0641Z" fill="white"/>
</svg>
